<?xml version="1.0" encoding="UTF-8"?>
<svg id="OBJECTS" xmlns="http://www.w3.org/2000/svg" version="1.1" viewBox="0 0 500 500">
  <defs>
    <style>
      .cls-1 {
        fill: #61a0b0;
      }

      .cls-1, .cls-2, .cls-3 {
        stroke-width: 0px;
      }

      .cls-4 {
        stroke-width: 1.4px;
      }

      .cls-4, .cls-5, .cls-6 {
        fill: none;
        stroke: #80d6ec;
        stroke-linecap: round;
        stroke-linejoin: round;
      }

      .cls-7 {
        opacity: .3;
      }

      .cls-5 {
        stroke-width: 1.46px;
      }

      .cls-6 {
        stroke-width: .75px;
      }

      .cls-2 {
        fill: #80d6ec;
      }

      .cls-3 {
        fill: #232347;
      }
    </style>
  </defs>
  <g>
    <g class="cls-7">
      <path class="cls-3" d="M202.74,121.1c-18.68-7.24-29.89.92-36.62,18.61,0,0-2.6-.99-2.6-.99-8.34-3.19-18.51-2.97-25.58,2.59,0,0-1.09,1-1.09,1l-.55.49c-.17.17-.32.37-.48.56l-.95,1.11c-1.46,1.94-2.44,4.2-3.13,6.52-.15.72-.34,1.85-.5,2.54,0,0-.07.45-.07.45l-.27,1.82c-.55,3.27-1.16,6.86-1.89,10.15-4.22.85-9.22,1.52-13.09,3.02-4.01,1.96-7.5,5.16-10.22,8.68-1.68,2.13-2.89,4.57-3.77,7.03-2.54,5.93.79,13.04-.25,19.58-.3,2.43-.29,4.77-1.54,7.14-.48.93-1.49,1.95-2.28,2.54-.02.02,0,.02,0,.02l-.4.56-.16.23c-2.86,3.38-5.7,5.35-8.07,8.66-3.87,6.22-6.68,13.5-6.26,20.85.27,3.84,1.46,7.17,1.36,11.33-.35,2.51-.21,3.55-1.21,6.57-.95,2.55-2.99,4.34-4.08,6.73-4.73,8.56-6.89,18.6-5.26,28.21,2.53,13.49,12.12,21.99,24.43,26.99,12.91,5.55,27.67,3.15,41.49,1.75,3.04-.27,6.49-.66,9.56-.77,20.42-1.27,36.39,12.95,53.34,20.95,17.96,8.04,38.88,12.18,57.92,6.42,1.93-.42,4.27-1.48,6.17-2.08,5.94-1.88,10.66-5.53,15.24-9.86,0,0,5.78-5.4,5.78-5.4l2.77,7.21c6.41,17.55,23.27,18.15,39.77,17.73,10.55.17,18.95,7.8,28.14,11.17,6.44,2.32,14.28,2.49,20.06-1.32,3.15-2.16,6.04-5.18,9.66-7.06,1.44-.69,2.9-1.37,4.4-1.87,5.92-2.16,13.16-1.61,18.84-3.32,3.4-.97,6.2-3.02,8.47-5.82,3.6-4.36,6.49-8.88,6.66-14.5.23-3.88-.41-7.29-1.13-11.19-.35-2.45-.72-4.5.39-7.11,0,0,.07-.14.07-.14l.09-.12c3-3.38,6.67-3.88,10.3-5.8,1.01-.56,1.9-1.07,2.37-1.67,3.37-3.35,5.52-7.66,6.23-12.38.89-5.8.17-12.27-1.37-18.13-1.06-3.57-2.71-6.72-4.5-10.09-2.51-4.84-5.72-9.99-6.57-15.57-.67-5.98,1.53-11.28,2.54-16.58,1.03-4.86-.1-9.19-.81-13.89-.95-5.27-2.15-10.43-3.77-15.37-3.29-8.69-7.76-17.45-13.5-24.66-3-3.62-6.31-6.94-10.08-9.54-4.27-3.05-8.6-4.87-13.32-8.12-4.17-2.81-7.39-7.19-9.33-11.8-2.16-5.51-4.35-11.73-7.79-15.97-6.89-9.07-14.12-12.42-25.69-12.95-6.94-.27-12.83-3.05-14.99-6.51-3.05-4.17-3.33-9.04-5.9-12.85-.65-.89-1.67-1.66-2.49-2.37-4.15-3.24-9.91-5.12-15.26-6.09-5.73-1.04-11.74-1.22-17.38-.24-5.6.96-10.96,3.21-13.99,6.99l-3.98,4.95-3.11-5.17c-1.14-1.9-3.18-3.59-5.62-4.76-7.04-3.37-17.63-3.01-22.29,3.99,0,0-2.11,3.29-2.11,3.29l-2.59-2.55c-12.65-12.12-32.06,2.54-37.22,15.75,0,0-1.34-.41-1.34-.41,2.33-8.62,8.3-15.94,15.8-20.77,8.22-5.4,19.04-5.93,26.85.87,0,0-4.7.75-4.7.75,7.68-14.06,31.48-13.48,40.46-.94,0,0-7.1-.22-7.1-.22,2.32-3.15,5.41-5.66,8.81-7.45,14.85-7.71,37.77-6.54,51.51,3.15,3.39,2.3,6.38,6.03,7.79,9.67,1.34,3.07,2,5.94,3.74,8.26-.17-.31-.17-.3-.21-.37l-.08-.12-.08-.11c-.04-.05-.04-.06-.05-.07.2.14.45.28.8.44,1.52.69,3.62.87,5.47.97,4.31.23,8.46.61,12.82,1.77,11.84,3.04,21.26,12.48,26.82,23.04,2,3.69,3.28,7.55,4.77,11.29,2,5.14,6.24,7.3,11.1,10.09,4.76,2.67,9.79,6.27,13.69,10.3,9.5,9.52,15.26,21.81,19.51,34.32,1.76,5.97,2.8,12.11,3.5,18.15.65,5.58,1.29,11.79-.26,17.14-1.15,5.05-3.74,9.74-3.32,14.57,2.21,9.75,9.14,18.15,10.06,28.39,1.04,8,1.06,17.07-3.02,24.5-1.17,2.3-3.67,5.4-5.1,6.65-2.18,2.23-4.64,2.89-7.17,4.01-1.53.75-4.36,1.58-5.29,2.75,0,0,.16-.26.16-.26-.16.29-.29,1.01-.28,1.82.04,2.83.87,5.49,1.19,8.49.42,4.25.32,8.43-1.02,12.53-1.36,4.03-3.74,7.45-6.35,10.68-1.26,1.67-2.94,3.22-4.66,4.45-6.74,4.96-15.58,3.75-23.13,6.08-.63.18-1.89.65-2.53.94-4.54,1.67-7.44,5.33-11.43,8.19-7.1,5.14-16.89,5.45-25.01,2.89-7.49-2.25-14.16-7.08-21.39-8.84-1.39-.33-2.87-.46-4.29-.55-.2,0-.41.02-.62.03l-1.23.07c-14.03,1.29-30.29.73-40.77-10.28-3.22-3.32-5.63-7.26-7.4-11.32l8.56,1.8c-2.23,2.26-4.6,4.54-7.3,6.63-3.29,2.59-7.28,4.87-11.25,6.35-1.09.42-3.31,1.34-4.4,1.77-22.57,8.38-47.54,4.6-69.1-4.56-15.49-6.41-31.26-20.15-47.32-18.74,0,0-1.93.13-1.93.13l-2.25.23c-3.69.42-9.95,1.14-13.54,1.6-12.78,1.7-27.24,1.89-39.63-3.38-21.2-8.55-34.81-25.57-33.96-49.05.56-11.57,4.91-23.55,11.68-32.31-.07.1-.12.26-.17.36-.15.52.04-.08.13-.7l.32-2.11-.05.65c-.04-1.29-.23-3.2-.52-4.79-2.06-12.26,2.28-24.85,9.4-34.7,2.28-3.07,6.09-6.03,8.5-8.54,0,0-.42.53-.42.53.55-.71,1.11-1.45,2.03-2.3.23-.21.48-.43.7-.6.25-.2.41-.31.46-.35l-.17.16c-.42.43-.93,1.03-1.11,1.6-.13.34-.09.33-.06.17l.06-.27c1.42-5.7.04-10.3.25-16.47.09-3.09.92-6.6,2.46-9.57l-.28.66c1.38-3.66,3.37-6.69,5.6-9.4,4-4.73,8.9-8.62,14.63-11.04,4.18-1.52,8.26-1.89,12.41-2.51,0,0-3.79,3.49-3.79,3.49.57-2.17,1.1-4.48,1.58-6.72.31-1.77.87-3.92,1.33-5.67,1.37-3.97,3.56-7.76,6.62-10.67.76-.87,2.3-1.94,3.2-2.7,0,0,1.77-1.09,1.77-1.09,9.35-5.56,21.07-4.91,30.52-.47,0,0-3.6,1.38-3.6,1.38,5.69-11.57,15.87-21.38,29.71-19.06,4.1.63,7.93,2.08,11.51,3.87l-.58,1.28h0Z"/>
    </g>
    <path class="cls-2" d="M202.94,120.64c-11.37-5.1-23.5-4.49-31.62,5.9-2.45,3.01-4.37,6.43-5.97,9.98-.18.41-.67.59-1.07.41-10.41-4.44-24.15-3.5-31.6,5.72-4.69,5.46-4.62,12.92-6.27,19.65-.12.53-.56.91-1.07.98-3.63.64-7.38,1.19-10.79,2.45-4.63,2.12-8.63,5.57-11.8,9.53-1.79,2.26-3.32,4.77-4.28,7.46-1.04,2.11-1.59,4.38-1.62,6.8-.07,4.87,1.29,10.23.4,15.2-.3,1.58-.19,3.43-1.24,4.89-.35.41-.87.77-1.21,1.08-.39.34-.74.88-1.12,1.34-2.76,3.04-6.03,5.51-8.32,8.75-2.11,3.31-4,6.91-5.3,10.61-1.97,5.56-2.68,11.53-1.6,17.33.3,2.04.83,4.19.73,6.61,0,0-.3,2.31-.3,2.31-.13.78-.21,1.59-.6,2.62-.69,1.61-1.82,2.68-2.69,4.13-4.67,7.4-7.58,16.17-7.91,24.93-.58,11.74,4.15,23.52,13.11,31.22,9.03,7.67,20.54,12.48,32.43,13.11,12.11.69,24.16-1.75,36.31-2.45,19.16-.96,34.16,12.94,50.67,20.27,16.56,7.2,35.1,11.32,53.09,8.08,4.47-.79,8.83-2.03,13.06-3.68,4.26-1.57,8.36-3.37,11.96-6.18,2.4-1.8,4.62-3.85,6.79-5.97.29-.29.76-.28,1.05.01,6.62,16.65,21.72,20.14,38.16,19.34,3.88-.22,8.12-.61,11.98.53,11.15,3.09,20.5,12.05,32.57,10.71,3.73-.29,7.23-1.27,10.26-3.47,2.99-2.08,5.7-5.16,9.44-7.21,3.63-1.95,7.65-3.1,11.69-3.61,3.96-.55,7.83-.75,11.29-1.84,3.47-1.06,6.4-3.17,8.65-6.07,3.57-4.45,6.45-9.09,6.61-14.77.24-3.9-.41-7.36-1.13-11.26-.3-2.39-.78-4.69.52-7.14,3.49-4.05,9.04-3.97,12.7-7.34,7.47-7.01,7.96-17.82,6.31-27.48-.65-4.91-2.72-9.41-5.07-14.03-2.34-4.78-5.27-9.75-6.03-15.16-.29-2.98.27-5.84.94-8.44,1.32-4.92,3.05-9.58,2.59-14.58-.22-2.55-.53-5.1-.89-7.64-.75-5.07-1.73-10.12-3.14-14.99-3.11-9.54-7.68-19-13.74-27.01-3.11-3.95-6.64-7.57-10.7-10.49-4.17-3.15-8.85-5.16-13.24-8.26-3.54-2.43-6.18-6.05-7.84-9.98-2.24-5.88-4.51-12.13-8.35-16.98-3.01-3.88-6.63-7.55-10.87-10.03-4.21-2.49-9.08-3.65-14.13-4.18-2.62-.32-5.3-.28-7.92-.82-11.12-2.04-8.83-10.06-13.92-17.18-2.96-3.46-6.98-5.7-11.27-7.29-12.93-4.63-34.02-5.33-43.51,6.2-.47.66-1.5.61-1.93-.06-6.85-9.89-25.94-10.87-32.48-.15-.22.4-.73.54-1.13.31-3.06-2.83-7-4.7-11.21-4.81-12.29-.22-24.21,10.79-28.12,21.97-.07.25-.46.12-.38-.12,1.24-4.14,3.5-7.91,6.24-11.23,8.11-10.06,23.45-17.11,34.44-7.16,0,0-1.27.2-1.27.2,7.01-12.18,28.14-11.31,35.89-.32,0,0-1.93-.06-1.93-.06,11.67-15.41,47.11-13.52,59.2.48,3.19,3.76,3.83,9.61,6.46,13.18.45.54,1.41,1.26,2.27,1.61,2.14,1.01,4.55,1.26,6.98,1.4,4.02.22,8,.61,11.95,1.67,8.05,2.03,14.72,7.56,19.74,14.01,4.26,5.34,6.67,11.67,9.01,17.83,1.4,3.27,3.52,6.13,6.49,8.17,4.13,2.9,9.14,5.05,13.3,8.21,11.02,7.89,18.26,19.82,23.31,32.13,3.2,7.25,4.89,15.32,6.03,23.13.74,5.34,1.62,11.04.24,16.28-1.21,5.32-3.38,10.11-2.96,14.61,1.38,7.54,6.22,13.81,8.82,21.02,1,2.54,1.69,5.26,2.07,7.96.78,5.25,1.16,10.73.16,16.2-1.24,6.78-5.25,13.95-11.21,16.96-2.75,1.45-6.74,2.33-8.86,4.41,0,0,.14-.22.14-.22-.53,1.1-.24,3.26-.04,4.64,1.12,5.88,1.97,12.38-.08,18.24-1.41,4.06-3.87,7.41-6.36,10.52-2.58,3.28-6.3,5.92-10.34,7.07-7.71,2.19-15.49,1.05-22.49,4.99-3.21,1.67-5.8,4.57-9.24,6.93-6.87,4.72-16.16,4.78-23.8,2.13-9.2-3.04-16.89-10.23-26.81-10.46-5.8.18-11.84.52-17.67-.28-12.7-1.37-22.98-7.94-27.58-20.14,0,0,1.21.25,1.21.25-4.38,4.31-9.27,8.32-15.01,10.71-2.9,1.12-5.69,2.25-8.64,3.18-26.81,8.27-55.86-.29-79.07-14.48-7.86-4.5-15.92-8.88-24.88-10.44-9.01-1.52-17.97.68-26.99,1.53-15.85,2.15-30.99,1.64-45.11-6.93-25.44-13.9-28.39-45.39-12.46-67.9,0,0,.65-.87.65-.87.19-.27.28-.42.36-.63.17-.4.29-1.12.4-1.84l.31-2.22v.17c.03-3.5-1.42-7.83-1.18-12.2.11-8.63,3.46-16.8,8.12-23.93,3.3-4.42,7.17-7.09,9.97-10.57.29-.26.83-.69.92-.76.22-.59.47-2.53.58-3.31.88-4.95-.49-9.72-.34-14.84-.1-2.41.99-6.26,1.84-7.72,1.12-3.1,2.83-5.85,4.82-8.32,3.55-4.29,7.93-7.94,13.05-10.18,3.75-1.37,7.64-1.85,11.5-2.49,0,0-1.07.98-1.07.98,1.76-6.98,1.94-14.8,7.03-20.5,8.16-9.83,22.96-10.87,34.01-5.79,0,0-1.07.41-1.07.41,5.14-11.19,14.6-20.83,27.86-19.01,3.99.48,7.8,1.79,11.39,3.46.25.13.06.46-.16.36h0Z"/>
  </g>
  <g>
    <g>
      <g>
        <line class="cls-4" x1="232.71" y1="217.22" x2="227.74" y2="187.29"/>
        <line class="cls-4" x1="237.75" y1="217.05" x2="231.55" y2="179.73"/>
        <line class="cls-4" x1="242.47" y1="214.92" x2="235.8" y2="174.8"/>
        <line class="cls-4" x1="247.62" y1="215.42" x2="239.23" y2="164.94"/>
        <line class="cls-4" x1="252.55" y1="214.6" x2="244.82" y2="168.07"/>
        <line class="cls-4" x1="257.37" y1="213.12" x2="250.6" y2="172.34"/>
        <line class="cls-4" x1="262.41" y1="212.96" x2="256.62" y2="178.1"/>
        <line class="cls-4" x1="267.13" y1="210.82" x2="262.26" y2="181.56"/>
        <line class="cls-4" x1="271.84" y1="208.69" x2="268.09" y2="186.08"/>
        <line class="cls-4" x1="277.1" y1="209.84" x2="273.91" y2="190.6"/>
        <line class="cls-4" x1="287.29" y1="271.17" x2="292.27" y2="301.09"/>
        <line class="cls-4" x1="282.25" y1="271.33" x2="288.46" y2="308.65"/>
        <line class="cls-4" x1="277.54" y1="273.46" x2="284.21" y2="313.58"/>
        <line class="cls-4" x1="272.39" y1="272.97" x2="280.78" y2="323.44"/>
        <line class="cls-4" x1="267.46" y1="273.79" x2="275.19" y2="320.32"/>
        <line class="cls-4" x1="262.63" y1="275.26" x2="269.41" y2="316.04"/>
        <line class="cls-4" x1="257.59" y1="275.43" x2="263.38" y2="310.28"/>
        <line class="cls-4" x1="252.88" y1="277.56" x2="257.74" y2="306.83"/>
        <line class="cls-4" x1="248.16" y1="279.7" x2="251.92" y2="302.3"/>
        <line class="cls-4" x1="242.9" y1="278.54" x2="246.1" y2="297.78"/>
        <line class="cls-4" x1="285.84" y1="216.67" x2="341.58" y2="207.4"/>
        <line class="cls-4" x1="286.66" y1="221.6" x2="350.12" y2="211.05"/>
        <line class="cls-4" x1="287.48" y1="226.53" x2="357.68" y2="214.86"/>
        <line class="cls-4" x1="288.3" y1="231.46" x2="364.75" y2="218.76"/>
        <line class="cls-4" x1="289.12" y1="236.4" x2="359.32" y2="224.73"/>
        <line class="cls-4" x1="290.93" y1="241.16" x2="353.4" y2="230.78"/>
        <line class="cls-4" x1="291.74" y1="246.1" x2="346.49" y2="237"/>
        <line class="cls-4" x1="293.22" y1="250.92" x2="341.56" y2="242.89"/>
        <line class="cls-4" x1="293.38" y1="255.96" x2="336.46" y2="248.8"/>
        <line class="cls-4" x1="293.22" y1="261.06" x2="331.44" y2="254.7"/>
        <line class="cls-4" x1="233.54" y1="270.98" x2="177.8" y2="280.24"/>
        <line class="cls-4" x1="232.72" y1="266.04" x2="169.25" y2="276.59"/>
        <line class="cls-4" x1="231.9" y1="261.11" x2="161.69" y2="272.78"/>
        <line class="cls-4" x1="231.08" y1="256.18" x2="154.63" y2="268.89"/>
        <line class="cls-4" x1="230.26" y1="251.25" x2="160.05" y2="262.91"/>
        <line class="cls-4" x1="228.45" y1="246.48" x2="165.97" y2="256.86"/>
        <line class="cls-4" x1="227.63" y1="241.55" x2="172.88" y2="250.65"/>
        <line class="cls-4" x1="226.15" y1="236.72" x2="177.82" y2="244.76"/>
        <line class="cls-4" x1="225.99" y1="231.68" x2="182.92" y2="238.84"/>
        <line class="cls-4" x1="226.16" y1="226.58" x2="187.93" y2="232.94"/>
        <line class="cls-4" x1="273.91" y1="190.6" x2="307.12" y2="185.08"/>
        <line class="cls-4" x1="268.09" y1="186.08" x2="300.47" y2="180.7"/>
        <line class="cls-4" x1="262.26" y1="181.56" x2="293.34" y2="176.39"/>
        <line class="cls-4" x1="256.62" y1="178.1" x2="284.08" y2="173.54"/>
        <line class="cls-4" x1="250.6" y1="172.34" x2="277.72" y2="167.84"/>
        <line class="cls-4" x1="244.82" y1="168.07" x2="272.44" y2="163.48"/>
        <line class="cls-4" x1="239.23" y1="164.94" x2="263.89" y2="160.84"/>
        <line class="cls-4" x1="227.74" y1="187.29" x2="203.57" y2="191.31"/>
        <line class="cls-4" x1="231.55" y1="179.73" x2="195.38" y2="185.75"/>
        <line class="cls-4" x1="235.8" y1="174.8" x2="203.25" y2="180.21"/>
        <line class="cls-4" x1="187.93" y1="232.94" x2="184.1" y2="209.92"/>
        <line class="cls-4" x1="182.91" y1="238.84" x2="177" y2="203.25"/>
        <line class="cls-4" x1="177.81" y1="244.76" x2="171.84" y2="208.83"/>
        <line class="cls-4" x1="172.88" y1="250.65" x2="167.22" y2="216.61"/>
        <line class="cls-4" x1="165.97" y1="256.86" x2="160.77" y2="225.63"/>
        <line class="cls-4" x1="160.05" y1="262.92" x2="155.13" y2="233.32"/>
        <line class="cls-4" x1="154.63" y1="268.89" x2="149.87" y2="240.34"/>
        <line class="cls-4" x1="161.69" y1="272.78" x2="166.4" y2="301.15"/>
        <line class="cls-4" x1="169.25" y1="276.59" x2="174.74" y2="309.65"/>
        <line class="cls-4" x1="177.8" y1="280.24" x2="179.93" y2="293.07"/>
        <line class="cls-4" x1="246.1" y1="297.78" x2="219.96" y2="302.13"/>
        <line class="cls-4" x1="251.92" y1="302.3" x2="230.71" y2="305.83"/>
        <line class="cls-4" x1="292.27" y1="301.09" x2="322.85" y2="296.01"/>
        <line class="cls-4" x1="288.46" y1="308.65" x2="319.9" y2="303.43"/>
        <line class="cls-4" x1="284.21" y1="313.58" x2="314.62" y2="308.53"/>
        <line class="cls-4" x1="280.78" y1="323.45" x2="309.59" y2="318.66"/>
        <line class="cls-4" x1="257.74" y1="306.83" x2="242.94" y2="309.29"/>
        <line class="cls-4" x1="263.38" y1="310.28" x2="248.59" y2="312.75"/>
        <line class="cls-4" x1="269.41" y1="316.04" x2="258.5" y2="317.85"/>
        <line class="cls-4" x1="275.19" y1="320.32" x2="265.32" y2="321.96"/>
        <line class="cls-4" x1="341.58" y1="207.4" x2="334.14" y2="162.68"/>
        <line class="cls-4" x1="350.12" y1="211.05" x2="339.96" y2="149.89"/>
        <line class="cls-4" x1="357.68" y1="214.86" x2="347.68" y2="154.69"/>
        <line class="cls-4" x1="364.75" y1="218.76" x2="358.41" y2="180.61"/>
        <line class="cls-4" x1="359.32" y1="224.73" x2="364.9" y2="258.27"/>
        <line class="cls-4" x1="353.4" y1="230.78" x2="359.76" y2="269.01"/>
        <line class="cls-4" x1="346.49" y1="237" x2="353.42" y2="278.68"/>
        <line class="cls-4" x1="341.56" y1="242.89" x2="349.16" y2="288.6"/>
        <line class="cls-4" x1="336.46" y1="248.8" x2="344.44" y2="296.82"/>
        <line class="cls-4" x1="331.44" y1="254.7" x2="334.8" y2="274.93"/>
        <line class="cls-4" x1="184.1" y1="209.92" x2="206.06" y2="206.27"/>
        <line class="cls-4" x1="206.06" y1="206.27" x2="207.74" y2="216.42"/>
        <line class="cls-4" x1="203.57" y1="191.31" x2="205.1" y2="200.52"/>
        <line class="cls-4" x1="205.1" y1="200.52" x2="219.72" y2="198.09"/>
        <line class="cls-4" x1="203.25" y1="180.21" x2="198.57" y2="152.1"/>
        <line class="cls-4" x1="195.38" y1="185.75" x2="188.79" y2="146.12"/>
        <line class="cls-4" x1="263.89" y1="160.84" x2="256.58" y2="116.86"/>
        <line class="cls-4" x1="272.44" y1="163.48" x2="266.93" y2="130.35"/>
        <line class="cls-4" x1="256.58" y1="116.86" x2="291.44" y2="111.07"/>
        <line class="cls-4" x1="307.12" y1="185.08" x2="308.71" y2="194.7"/>
        <line class="cls-4" x1="308.71" y1="194.7" x2="296.71" y2="196.7"/>
        <line class="cls-4" x1="334.14" y1="162.68" x2="326" y2="164.04"/>
        <line class="cls-4" x1="326" y1="164.04" x2="330.5" y2="191.08"/>
        <line class="cls-4" x1="334.8" y1="274.93" x2="324.94" y2="276.57"/>
        <line class="cls-4" x1="324.94" y1="276.57" x2="322.64" y2="262.76"/>
        <line class="cls-4" x1="322.85" y1="296.01" x2="319.76" y2="277.43"/>
        <line class="cls-4" x1="319.76" y1="277.43" x2="301.84" y2="280.41"/>
        <line class="cls-4" x1="219.96" y1="302.13" x2="218.65" y2="294.23"/>
        <line class="cls-4" x1="218.65" y1="294.23" x2="236.89" y2="291.2"/>
        <line class="cls-4" x1="179.93" y1="293.07" x2="203.43" y2="289.16"/>
        <line class="cls-4" x1="174.74" y1="309.65" x2="196.78" y2="305.98"/>
        <line class="cls-4" x1="196.78" y1="305.98" x2="200.36" y2="327.52"/>
        <line class="cls-4" x1="230.71" y1="305.83" x2="233.88" y2="324.9"/>
        <line class="cls-4" x1="233.88" y1="324.9" x2="218.92" y2="327.39"/>
        <line class="cls-4" x1="242.94" y1="309.29" x2="246.62" y2="331.4"/>
        <line class="cls-4" x1="258.5" y1="317.85" x2="262.79" y2="343.66"/>
        <line class="cls-4" x1="265.32" y1="321.96" x2="268.77" y2="342.67"/>
        <line class="cls-4" x1="309.59" y1="318.66" x2="313.81" y2="344.05"/>
        <line class="cls-4" x1="314.62" y1="308.53" x2="318.24" y2="330.27"/>
        <line class="cls-4" x1="319.9" y1="303.43" x2="323.15" y2="322.99"/>
        <line class="cls-4" x1="323.15" y1="322.99" x2="331.91" y2="321.53"/>
        <line class="cls-4" x1="344.44" y1="296.82" x2="378.06" y2="291.23"/>
        <line class="cls-4" x1="378.06" y1="291.23" x2="382.34" y2="316.95"/>
        <line class="cls-4" x1="382.34" y1="316.95" x2="365.53" y2="319.75"/>
        <line class="cls-4" x1="349.16" y1="288.6" x2="386.72" y2="282.35"/>
        <line class="cls-4" x1="353.42" y1="278.68" x2="393.87" y2="271.96"/>
        <line class="cls-4" x1="359.76" y1="269.01" x2="399.38" y2="262.43"/>
        <line class="cls-4" x1="364.9" y1="258.27" x2="389.89" y2="254.12"/>
        <line class="cls-4" x1="389.89" y1="254.12" x2="386.4" y2="233.15"/>
        <line class="cls-4" x1="386.4" y1="233.15" x2="407.86" y2="229.59"/>
        <line class="cls-4" x1="386.72" y1="282.35" x2="390.06" y2="302.45"/>
        <line class="cls-4" x1="390.06" y1="302.45" x2="408.44" y2="299.4"/>
        <line class="cls-4" x1="393.87" y1="271.96" x2="396.24" y2="286.26"/>
        <line class="cls-4" x1="399.38" y1="262.43" x2="397.12" y2="248.86"/>
        <line class="cls-4" x1="358.41" y1="180.61" x2="373.95" y2="178.03"/>
        <line class="cls-4" x1="347.68" y1="154.69" x2="358.37" y2="152.91"/>
        <line class="cls-4" x1="300.47" y1="180.7" x2="296.64" y2="157.6"/>
        <line class="cls-4" x1="277.72" y1="167.84" x2="273.05" y2="139.72"/>
        <line class="cls-4" x1="284.08" y1="173.54" x2="279.39" y2="145.3"/>
        <line class="cls-4" x1="293.34" y1="176.39" x2="288.93" y2="149.84"/>
        <line class="cls-4" x1="279.39" y1="145.3" x2="321.72" y2="138.26"/>
        <line class="cls-4" x1="296.64" y1="157.6" x2="309.87" y2="155.4"/>
        <line class="cls-4" x1="149.87" y1="240.34" x2="124.73" y2="244.52"/>
        <line class="cls-4" x1="124.73" y1="244.52" x2="121.85" y2="227.19"/>
        <line class="cls-4" x1="121.85" y1="227.19" x2="109.02" y2="229.33"/>
        <line class="cls-4" x1="166.4" y1="301.15" x2="138.46" y2="305.79"/>
        <line class="cls-4" x1="138.46" y1="305.79" x2="135.21" y2="286.24"/>
        <line class="cls-4" x1="135.21" y1="286.24" x2="116.71" y2="289.31"/>
        <line class="cls-4" x1="155.13" y1="233.32" x2="133.35" y2="236.94"/>
        <line class="cls-4" x1="133.35" y1="236.94" x2="129.07" y2="211.21"/>
        <line class="cls-4" x1="177" y1="203.25" x2="188.83" y2="201.28"/>
        <line class="cls-4" x1="188.83" y1="201.28" x2="185.81" y2="183.11"/>
        <line class="cls-4" x1="171.84" y1="208.83" x2="164.37" y2="210.08"/>
        <line class="cls-4" x1="164.37" y1="210.08" x2="157.97" y2="171.6"/>
        <line class="cls-4" x1="167.22" y1="216.61" x2="155.39" y2="218.58"/>
        <line class="cls-4" x1="160.77" y1="225.63" x2="145.08" y2="228.23"/>
        <line class="cls-4" x1="145.08" y1="228.23" x2="139.97" y2="197.49"/>
        <line class="cls-4" x1="139.97" y1="197.49" x2="133.07" y2="198.64"/>
        <line class="cls-4" x1="116.71" y1="289.31" x2="113.43" y2="269.58"/>
        <line class="cls-4" x1="109.02" y1="229.33" x2="112.72" y2="251.58"/>
        <line class="cls-4" x1="198.57" y1="152.1" x2="219.04" y2="148.7"/>
        <line class="cls-4" x1="318.24" y1="330.27" x2="335.66" y2="327.37"/>
        <line class="cls-4" x1="365.53" y1="319.75" x2="368.48" y2="337.5"/>
        <line class="cls-4" x1="373.95" y1="178.03" x2="376.8" y2="195.21"/>
        <line class="cls-4" x1="113.43" y1="269.58" x2="93.46" y2="272.9"/>
        <line class="cls-4" x1="93.46" y1="272.9" x2="99.24" y2="307.7"/>
        <line class="cls-4" x1="368.48" y1="337.5" x2="397.37" y2="332.7"/>
        <line class="cls-4" x1="335.66" y1="327.37" x2="338.18" y2="342.54"/>
        <line class="cls-4" x1="338.18" y1="342.54" x2="345.83" y2="341.27"/>
        <g>
          <line class="cls-4" x1="207.74" y1="216.42" x2="195.65" y2="218.43"/>
          <line class="cls-4" x1="219.72" y1="198.09" x2="221.8" y2="210.58"/>
          <line class="cls-4" x1="188.79" y1="146.12" x2="173.91" y2="148.6"/>
          <line class="cls-4" x1="296.71" y1="196.7" x2="298.2" y2="205.66"/>
          <line class="cls-4" x1="330.5" y1="191.08" x2="319.16" y2="192.97"/>
          <line class="cls-4" x1="322.64" y1="262.76" x2="311.55" y2="264.6"/>
          <line class="cls-4" x1="301.84" y1="280.41" x2="300.28" y2="271.04"/>
          <line class="cls-4" x1="236.89" y1="291.2" x2="235.74" y2="284.3"/>
          <line class="cls-4" x1="203.43" y1="289.16" x2="204.99" y2="298.49"/>
          <line class="cls-4" x1="200.36" y1="327.52" x2="191.8" y2="328.94"/>
          <line class="cls-4" x1="218.92" y1="327.39" x2="216.65" y2="313.75"/>
          <line class="cls-4" x1="246.62" y1="331.4" x2="235.28" y2="333.28"/>
          <line class="cls-4" x1="248.59" y1="312.75" x2="252.54" y2="336.5"/>
          <line class="cls-4" x1="262.79" y1="343.66" x2="252.84" y2="345.32"/>
          <line class="cls-4" x1="268.77" y1="342.67" x2="278.63" y2="341.03"/>
          <line class="cls-4" x1="313.81" y1="344.05" x2="300.93" y2="346.2"/>
          <line class="cls-4" x1="331.91" y1="321.53" x2="330.55" y2="313.39"/>
          <line class="cls-4" x1="408.44" y1="299.4" x2="409.96" y2="308.56"/>
          <line class="cls-4" x1="407.86" y1="229.59" x2="406.18" y2="219.47"/>
          <line class="cls-4" x1="396.24" y1="286.26" x2="414.49" y2="283.22"/>
          <line class="cls-4" x1="397.12" y1="248.86" x2="408.47" y2="246.97"/>
          <line class="cls-4" x1="358.37" y1="152.91" x2="356.01" y2="138.69"/>
          <line class="cls-4" x1="339.96" y1="149.89" x2="332.23" y2="151.18"/>
          <line class="cls-4" x1="291.44" y1="111.07" x2="293.36" y2="122.66"/>
          <line class="cls-4" x1="266.93" y1="130.35" x2="282.47" y2="127.77"/>
          <line class="cls-4" x1="273.05" y1="139.72" x2="308.15" y2="133.89"/>
          <line class="cls-4" x1="288.93" y1="149.84" x2="302.98" y2="147.5"/>
          <line class="cls-4" x1="309.87" y1="155.4" x2="311.7" y2="166.41"/>
          <line class="cls-4" x1="321.72" y1="138.26" x2="319.42" y2="124.41"/>
          <line class="cls-4" x1="129.07" y1="211.21" x2="113.66" y2="213.77"/>
          <line class="cls-4" x1="185.81" y1="183.11" x2="176.61" y2="184.64"/>
          <line class="cls-4" x1="157.97" y1="171.6" x2="147.86" y2="173.28"/>
          <line class="cls-4" x1="155.39" y1="218.58" x2="151.98" y2="198.07"/>
          <line class="cls-4" x1="133.07" y1="198.64" x2="131.57" y2="189.63"/>
          <line class="cls-4" x1="112.72" y1="251.58" x2="105" y2="252.87"/>
          <line class="cls-4" x1="99.24" y1="307.7" x2="109.23" y2="306.04"/>
          <line class="cls-4" x1="397.37" y1="332.7" x2="399.41" y2="344.95"/>
          <line class="cls-4" x1="345.83" y1="341.27" x2="347.87" y2="353.52"/>
          <line class="cls-4" x1="376.8" y1="195.21" x2="405.82" y2="190.39"/>
          <line class="cls-4" x1="219.04" y1="148.7" x2="216.28" y2="132.09"/>
        </g>
      </g>
      <g>
        <g>
          <line class="cls-6" x1="207.74" y1="216.42" x2="195.65" y2="218.43"/>
          <path class="cls-2" d="M195.19,215.65c-1.54.26-2.57,1.71-2.32,3.24.26,1.54,1.71,2.57,3.24,2.32,1.54-.26,2.57-1.71,2.32-3.24-.26-1.54-1.71-2.57-3.24-2.32Z"/>
        </g>
        <g>
          <line class="cls-6" x1="219.72" y1="198.09" x2="221.8" y2="210.58"/>
          <path class="cls-2" d="M219.02,211.05c.26,1.54,1.71,2.57,3.24,2.32,1.54-.26,2.57-1.71,2.32-3.24-.26-1.54-1.71-2.57-3.24-2.32-1.54.26-2.57,1.71-2.32,3.24Z"/>
        </g>
        <g>
          <line class="cls-6" x1="188.79" y1="146.12" x2="173.91" y2="148.6"/>
          <path class="cls-2" d="M173.45,145.81c-1.54.26-2.57,1.71-2.32,3.24s1.71,2.57,3.24,2.32c1.54-.26,2.57-1.71,2.32-3.24-.26-1.54-1.71-2.57-3.24-2.32Z"/>
        </g>
        <g>
          <line class="cls-6" x1="296.71" y1="196.7" x2="298.2" y2="205.66"/>
          <path class="cls-2" d="M295.42,206.12c.26,1.54,1.71,2.57,3.24,2.32,1.54-.26,2.57-1.71,2.32-3.24-.26-1.54-1.71-2.57-3.24-2.32-1.54.26-2.57,1.71-2.32,3.24Z"/>
        </g>
        <g>
          <line class="cls-6" x1="330.5" y1="191.08" x2="319.16" y2="192.97"/>
          <path class="cls-2" d="M318.69,190.19c-1.54.26-2.57,1.71-2.32,3.24.26,1.54,1.71,2.57,3.24,2.32,1.54-.26,2.57-1.71,2.32-3.24-.26-1.54-1.71-2.57-3.24-2.32Z"/>
        </g>
        <g>
          <line class="cls-6" x1="322.64" y1="262.76" x2="311.55" y2="264.6"/>
          <path class="cls-2" d="M311.08,261.82c-1.54.26-2.57,1.71-2.32,3.24.26,1.54,1.71,2.57,3.24,2.32,1.54-.26,2.57-1.71,2.32-3.24-.26-1.54-1.71-2.57-3.24-2.32Z"/>
        </g>
        <g>
          <line class="cls-6" x1="301.84" y1="280.41" x2="300.28" y2="271.04"/>
          <path class="cls-2" d="M303.07,270.58c-.26-1.54-1.71-2.57-3.24-2.32-1.54.26-2.57,1.71-2.32,3.24.26,1.54,1.71,2.57,3.24,2.32,1.54-.26,2.57-1.71,2.32-3.24Z"/>
        </g>
        <g>
          <line class="cls-6" x1="236.89" y1="291.2" x2="235.74" y2="284.3"/>
          <path class="cls-2" d="M238.52,283.83c-.26-1.54-1.71-2.57-3.24-2.32-1.54.26-2.57,1.71-2.32,3.24.26,1.54,1.71,2.57,3.24,2.32,1.54-.26,2.57-1.71,2.32-3.24Z"/>
        </g>
        <g>
          <line class="cls-6" x1="203.43" y1="289.16" x2="204.99" y2="298.49"/>
          <path class="cls-2" d="M202.2,298.96c.26,1.54,1.71,2.57,3.24,2.32,1.54-.26,2.57-1.71,2.32-3.24-.26-1.54-1.71-2.57-3.24-2.32-1.54.26-2.57,1.71-2.32,3.24Z"/>
        </g>
        <g>
          <line class="cls-6" x1="200.36" y1="327.52" x2="191.8" y2="328.94"/>
          <path class="cls-2" d="M191.34,326.16c-1.54.26-2.57,1.71-2.32,3.24.26,1.54,1.71,2.57,3.24,2.32,1.54-.26,2.57-1.71,2.32-3.24-.26-1.54-1.71-2.57-3.24-2.32Z"/>
        </g>
        <g>
          <line class="cls-6" x1="218.92" y1="327.39" x2="216.65" y2="313.75"/>
          <path class="cls-2" d="M219.43,313.28c-.26-1.54-1.71-2.57-3.24-2.32s-2.57,1.71-2.32,3.24c.26,1.54,1.71,2.57,3.24,2.32,1.54-.26,2.57-1.71,2.32-3.24Z"/>
        </g>
        <g>
          <line class="cls-6" x1="246.62" y1="331.4" x2="235.28" y2="333.28"/>
          <path class="cls-2" d="M234.81,330.5c-1.54.26-2.57,1.71-2.32,3.24.26,1.54,1.71,2.57,3.24,2.32,1.54-.26,2.57-1.71,2.32-3.24-.26-1.54-1.71-2.57-3.24-2.32Z"/>
        </g>
        <g>
          <line class="cls-6" x1="248.59" y1="312.75" x2="252.54" y2="336.5"/>
          <path class="cls-2" d="M249.75,336.96c.26,1.54,1.71,2.57,3.24,2.32,1.54-.26,2.57-1.71,2.32-3.24-.26-1.54-1.71-2.57-3.24-2.32-1.54.26-2.57,1.71-2.32,3.24Z"/>
        </g>
        <g>
          <line class="cls-6" x1="262.79" y1="343.66" x2="252.84" y2="345.32"/>
          <path class="cls-2" d="M252.37,342.54c-1.54.26-2.57,1.71-2.32,3.24.26,1.54,1.71,2.57,3.24,2.32,1.54-.26,2.57-1.71,2.32-3.24-.26-1.54-1.71-2.57-3.24-2.32Z"/>
        </g>
        <g>
          <line class="cls-6" x1="268.77" y1="342.67" x2="278.63" y2="341.03"/>
          <path class="cls-2" d="M279.09,343.81c1.54-.26,2.57-1.71,2.32-3.24-.26-1.54-1.71-2.57-3.24-2.32-1.54.26-2.57,1.71-2.32,3.24.26,1.54,1.71,2.57,3.24,2.32Z"/>
        </g>
        <g>
          <line class="cls-6" x1="313.81" y1="344.05" x2="300.93" y2="346.2"/>
          <path class="cls-2" d="M300.47,343.41c-1.54.26-2.57,1.71-2.32,3.24.26,1.54,1.71,2.57,3.24,2.32,1.54-.26,2.57-1.71,2.32-3.24-.26-1.54-1.71-2.57-3.24-2.32Z"/>
        </g>
        <g>
          <line class="cls-6" x1="331.91" y1="321.53" x2="330.55" y2="313.39"/>
          <path class="cls-2" d="M333.34,312.93c-.26-1.54-1.71-2.57-3.24-2.32-1.54.26-2.57,1.71-2.32,3.24.26,1.54,1.71,2.57,3.24,2.32,1.54-.26,2.57-1.71,2.32-3.24Z"/>
        </g>
        <g>
          <line class="cls-6" x1="408.44" y1="299.4" x2="409.96" y2="308.56"/>
          <path class="cls-2" d="M407.18,309.02c.26,1.54,1.71,2.57,3.24,2.32,1.54-.26,2.57-1.71,2.32-3.24-.26-1.54-1.71-2.57-3.24-2.32-1.54.26-2.57,1.71-2.32,3.24Z"/>
        </g>
        <g>
          <line class="cls-6" x1="407.86" y1="229.59" x2="406.18" y2="219.47"/>
          <path class="cls-2" d="M408.96,219.01c-.26-1.54-1.71-2.57-3.24-2.32-1.54.26-2.57,1.71-2.32,3.24.26,1.54,1.71,2.57,3.24,2.32,1.54-.26,2.57-1.71,2.32-3.24Z"/>
        </g>
        <g>
          <line class="cls-6" x1="396.24" y1="286.26" x2="414.49" y2="283.22"/>
          <path class="cls-2" d="M414.96,286.01c1.54-.26,2.57-1.71,2.32-3.24-.26-1.54-1.71-2.57-3.24-2.32-1.54.26-2.57,1.71-2.32,3.24.26,1.54,1.71,2.57,3.24,2.32Z"/>
        </g>
        <g>
          <line class="cls-6" x1="397.12" y1="248.86" x2="408.47" y2="246.97"/>
          <path class="cls-2" d="M408.93,249.75c1.54-.26,2.57-1.71,2.32-3.24-.26-1.54-1.71-2.57-3.24-2.32-1.54.26-2.57,1.71-2.32,3.24.26,1.54,1.71,2.57,3.24,2.32Z"/>
        </g>
        <g>
          <line class="cls-6" x1="358.37" y1="152.91" x2="356.01" y2="138.69"/>
          <path class="cls-2" d="M358.79,138.23c-.26-1.54-1.71-2.57-3.24-2.32-1.54.26-2.57,1.71-2.32,3.24.26,1.54,1.71,2.57,3.24,2.32,1.54-.26,2.57-1.71,2.32-3.24Z"/>
        </g>
        <g>
          <line class="cls-6" x1="339.96" y1="149.89" x2="332.23" y2="151.18"/>
          <path class="cls-2" d="M331.77,148.39c-1.54.26-2.57,1.71-2.32,3.24.26,1.54,1.71,2.57,3.24,2.32,1.54-.26,2.57-1.71,2.32-3.24-.26-1.54-1.71-2.57-3.24-2.32Z"/>
        </g>
        <g>
          <line class="cls-6" x1="291.44" y1="111.07" x2="293.36" y2="122.66"/>
          <path class="cls-2" d="M290.58,123.12c.26,1.54,1.71,2.57,3.24,2.32,1.54-.26,2.57-1.71,2.32-3.24-.26-1.54-1.71-2.57-3.24-2.32-1.54.26-2.57,1.71-2.32,3.24Z"/>
        </g>
        <g>
          <line class="cls-6" x1="266.93" y1="130.35" x2="282.47" y2="127.77"/>
          <path class="cls-2" d="M282.93,130.55c1.54-.26,2.57-1.71,2.32-3.24-.26-1.54-1.71-2.57-3.24-2.32-1.54.26-2.57,1.71-2.32,3.24.26,1.54,1.71,2.57,3.24,2.32Z"/>
        </g>
        <g>
          <line class="cls-6" x1="273.05" y1="139.72" x2="308.15" y2="133.89"/>
          <path class="cls-2" d="M308.62,136.67c1.54-.26,2.57-1.71,2.32-3.24-.26-1.54-1.71-2.57-3.24-2.32-1.54.26-2.57,1.71-2.32,3.24.26,1.54,1.71,2.57,3.24,2.32Z"/>
        </g>
        <g>
          <line class="cls-6" x1="288.93" y1="149.84" x2="302.98" y2="147.5"/>
          <path class="cls-2" d="M303.45,150.28c1.54-.26,2.57-1.71,2.32-3.24-.26-1.54-1.71-2.57-3.24-2.32-1.54.26-2.57,1.71-2.32,3.24.26,1.54,1.71,2.57,3.24,2.32Z"/>
        </g>
        <g>
          <line class="cls-6" x1="309.87" y1="155.4" x2="311.7" y2="166.41"/>
          <path class="cls-2" d="M308.92,166.88c.26,1.54,1.71,2.57,3.24,2.32,1.54-.26,2.57-1.71,2.32-3.24-.26-1.54-1.71-2.57-3.24-2.32-1.54.26-2.57,1.71-2.32,3.24Z"/>
        </g>
        <g>
          <line class="cls-6" x1="321.72" y1="138.26" x2="319.42" y2="124.41"/>
          <path class="cls-2" d="M322.2,123.95c-.26-1.54-1.71-2.57-3.24-2.32-1.54.26-2.57,1.71-2.32,3.24.26,1.54,1.71,2.57,3.24,2.32,1.54-.26,2.57-1.71,2.32-3.24Z"/>
        </g>
        <g>
          <line class="cls-6" x1="129.07" y1="211.21" x2="113.66" y2="213.77"/>
          <path class="cls-2" d="M113.2,210.99c-1.54.26-2.57,1.71-2.32,3.24.26,1.54,1.71,2.57,3.24,2.32,1.54-.26,2.57-1.71,2.32-3.24-.26-1.54-1.71-2.57-3.24-2.32Z"/>
        </g>
        <g>
          <line class="cls-6" x1="185.81" y1="183.11" x2="176.61" y2="184.64"/>
          <path class="cls-2" d="M176.15,181.86c-1.54.26-2.57,1.71-2.32,3.24.26,1.54,1.71,2.57,3.24,2.32,1.54-.26,2.57-1.71,2.32-3.24-.26-1.54-1.71-2.57-3.24-2.32Z"/>
        </g>
        <g>
          <line class="cls-6" x1="157.97" y1="171.6" x2="147.86" y2="173.28"/>
          <path class="cls-2" d="M147.4,170.5c-1.54.26-2.57,1.71-2.32,3.24s1.71,2.57,3.24,2.32c1.54-.26,2.57-1.71,2.32-3.24-.26-1.54-1.71-2.57-3.24-2.32Z"/>
        </g>
        <g>
          <line class="cls-6" x1="155.39" y1="218.58" x2="151.98" y2="198.07"/>
          <path class="cls-2" d="M154.76,197.61c-.26-1.54-1.71-2.57-3.24-2.32-1.54.26-2.57,1.71-2.32,3.24.26,1.54,1.71,2.57,3.24,2.32,1.54-.26,2.57-1.71,2.32-3.24Z"/>
        </g>
        <g>
          <line class="cls-6" x1="133.07" y1="198.64" x2="131.57" y2="189.63"/>
          <path class="cls-2" d="M134.35,189.17c-.26-1.54-1.71-2.57-3.24-2.32-1.54.26-2.57,1.71-2.32,3.24.26,1.54,1.71,2.57,3.24,2.32,1.54-.26,2.57-1.71,2.32-3.24Z"/>
        </g>
        <g>
          <line class="cls-6" x1="112.72" y1="251.58" x2="105" y2="252.87"/>
          <path class="cls-2" d="M104.53,250.09c-1.54.26-2.57,1.71-2.32,3.24.26,1.54,1.71,2.57,3.24,2.32,1.54-.26,2.57-1.71,2.32-3.24-.26-1.54-1.71-2.57-3.24-2.32Z"/>
        </g>
        <g>
          <line class="cls-6" x1="99.24" y1="307.7" x2="109.23" y2="306.04"/>
          <path class="cls-2" d="M109.69,308.82c1.54-.26,2.57-1.71,2.32-3.24-.26-1.54-1.71-2.57-3.24-2.32-1.54.26-2.57,1.71-2.32,3.24.26,1.54,1.71,2.57,3.24,2.32Z"/>
        </g>
        <g>
          <line class="cls-6" x1="397.37" y1="332.7" x2="399.41" y2="344.95"/>
          <path class="cls-2" d="M396.63,345.41c.26,1.54,1.71,2.57,3.24,2.32,1.54-.26,2.57-1.71,2.32-3.24-.26-1.54-1.71-2.57-3.24-2.32-1.54.26-2.57,1.71-2.32,3.24Z"/>
        </g>
        <g>
          <line class="cls-6" x1="345.83" y1="341.27" x2="347.87" y2="353.52"/>
          <path class="cls-2" d="M345.08,353.98c.26,1.54,1.71,2.57,3.24,2.32,1.54-.26,2.57-1.71,2.32-3.24-.26-1.54-1.71-2.57-3.24-2.32-1.54.26-2.57,1.71-2.32,3.24Z"/>
        </g>
        <g>
          <line class="cls-6" x1="376.8" y1="195.21" x2="405.82" y2="190.39"/>
          <path class="cls-2" d="M406.28,193.17c1.54-.26,2.57-1.71,2.32-3.24-.26-1.54-1.71-2.57-3.24-2.32-1.54.26-2.57,1.71-2.32,3.24.26,1.54,1.71,2.57,3.24,2.32Z"/>
        </g>
        <g>
          <line class="cls-6" x1="219.04" y1="148.7" x2="216.28" y2="132.09"/>
          <path class="cls-2" d="M219.06,131.63c-.26-1.54-1.71-2.57-3.24-2.32-1.54.26-2.57,1.71-2.32,3.24.26,1.54,1.71,2.57,3.24,2.32,1.54-.26,2.57-1.71,2.32-3.24Z"/>
        </g>
      </g>
    </g>
    <g>
      <g>
        <g>
          <path class="cls-1" d="M234.8,223.27c.1.58-.3,1.13-.87,1.22h0c-.58.1-1.13-.29-1.22-.87l-1.85-11.14c-.1-.58.3-1.13.87-1.22h0c.58-.1,1.13.3,1.22.87l1.85,11.14Z"/>
          <path class="cls-1" d="M239.73,222.45c.1.58-.3,1.13-.87,1.22h0c-.58.1-1.13-.29-1.22-.87l-1.85-11.14c-.1-.58.3-1.13.87-1.22h0c.58-.1,1.13.3,1.22.87l1.85,11.14Z"/>
          <path class="cls-1" d="M244.66,221.63c.1.58-.3,1.13-.87,1.22h0c-.58.1-1.13-.29-1.22-.87l-1.85-11.14c-.1-.58.3-1.13.87-1.22h0c.58-.1,1.13.3,1.22.87l1.85,11.14Z"/>
          <path class="cls-1" d="M249.59,220.81c.1.58-.29,1.13-.87,1.22h0c-.58.1-1.13-.29-1.22-.87l-1.85-11.14c-.1-.58.29-1.13.87-1.22h0c.58-.1,1.13.3,1.22.87l1.85,11.14Z"/>
          <path class="cls-1" d="M254.52,219.99c.1.58-.29,1.13-.87,1.22h0c-.58.1-1.13-.29-1.22-.87l-1.85-11.14c-.1-.58.29-1.13.87-1.22h0c.58-.1,1.13.3,1.22.87l1.85,11.14Z"/>
          <path class="cls-1" d="M259.46,219.17c.1.58-.29,1.13-.87,1.22h0c-.58.1-1.13-.29-1.22-.87l-1.85-11.14c-.1-.58.29-1.13.87-1.22h0c.58-.1,1.13.3,1.22.87l1.85,11.14Z"/>
          <path class="cls-1" d="M264.39,218.35c.1.58-.29,1.13-.87,1.22h0c-.58.1-1.13-.29-1.22-.87l-1.85-11.14c-.1-.58.29-1.13.87-1.22h0c.58-.1,1.13.3,1.22.87l1.85,11.14Z"/>
          <path class="cls-1" d="M269.32,217.53c.1.58-.29,1.13-.87,1.22h0c-.58.1-1.13-.29-1.22-.87l-1.85-11.14c-.1-.58.29-1.13.87-1.22h0c.58-.1,1.13.3,1.22.87l1.85,11.14Z"/>
          <path class="cls-1" d="M274.25,216.71c.1.58-.29,1.13-.87,1.22h0c-.58.1-1.13-.29-1.22-.87l-1.85-11.14c-.1-.58.29-1.13.87-1.22h0c.58-.1,1.13.3,1.22.87l1.85,11.14Z"/>
          <path class="cls-1" d="M279.19,215.89c.1.58-.29,1.13-.87,1.22h0c-.58.1-1.13-.29-1.22-.87l-1.85-11.14c-.1-.58.29-1.13.87-1.22h0c.58-.1,1.13.3,1.22.87l1.85,11.14Z"/>
        </g>
        <g>
          <path class="cls-1" d="M244.63,282.46c.1.58-.3,1.13-.87,1.22h0c-.58.1-1.13-.29-1.22-.88l-1.85-11.14c-.1-.58.3-1.13.87-1.22h0c.58-.1,1.13.3,1.22.87l1.85,11.14Z"/>
          <path class="cls-1" d="M249.56,281.64c.1.58-.3,1.13-.87,1.22h0c-.58.1-1.13-.29-1.22-.88l-1.85-11.14c-.1-.58.3-1.13.87-1.22h0c.58-.1,1.13.3,1.22.87l1.85,11.14Z"/>
          <path class="cls-1" d="M254.5,280.82c.1.58-.3,1.13-.87,1.22h0c-.58.1-1.13-.29-1.22-.88l-1.85-11.14c-.1-.58.3-1.13.87-1.22h0c.58-.1,1.13.3,1.22.87l1.85,11.14Z"/>
          <path class="cls-1" d="M259.43,280c.1.58-.29,1.13-.87,1.22h0c-.58.1-1.13-.29-1.22-.88l-1.85-11.14c-.1-.58.29-1.13.87-1.22h0c.58-.1,1.13.3,1.22.87l1.85,11.14Z"/>
          <path class="cls-1" d="M264.36,279.18c.1.58-.29,1.13-.87,1.22h0c-.58.1-1.13-.29-1.22-.88l-1.85-11.14c-.1-.58.29-1.13.87-1.22h0c.58-.1,1.13.3,1.22.87l1.85,11.14Z"/>
          <path class="cls-1" d="M269.29,278.36c.1.58-.29,1.13-.87,1.22h0c-.58.1-1.13-.29-1.22-.88l-1.85-11.14c-.1-.58.29-1.13.87-1.22h0c.58-.1,1.13.3,1.22.87l1.85,11.14Z"/>
          <path class="cls-1" d="M274.23,277.54c.1.58-.29,1.13-.87,1.22h0c-.58.1-1.13-.29-1.22-.88l-1.85-11.14c-.1-.58.29-1.13.87-1.22h0c.58-.1,1.13.3,1.22.87l1.85,11.14Z"/>
          <path class="cls-1" d="M279.16,276.72c.1.58-.29,1.13-.87,1.22h0c-.58.1-1.13-.29-1.22-.88l-1.85-11.14c-.1-.58.29-1.13.87-1.22h0c.58-.1,1.13.3,1.22.87l1.85,11.14Z"/>
          <path class="cls-1" d="M284.09,275.9c.1.58-.29,1.13-.87,1.22h0c-.58.1-1.13-.29-1.22-.88l-1.85-11.14c-.1-.58.29-1.13.87-1.22h0c.58-.1,1.13.3,1.22.87l1.85,11.14Z"/>
          <path class="cls-1" d="M289.02,275.08c.1.58-.29,1.13-.87,1.22h0c-.58.1-1.13-.29-1.22-.88l-1.85-11.14c-.1-.58.29-1.13.87-1.22h0c.58-.1,1.13.3,1.22.87l1.85,11.14Z"/>
        </g>
        <g>
          <path class="cls-1" d="M239.42,268.92c.58-.1,1.13.3,1.22.87h0c.1.58-.29,1.13-.87,1.22l-11.14,1.85c-.58.1-1.13-.29-1.22-.87h0c-.1-.58.3-1.13.87-1.22l11.14-1.85Z"/>
          <path class="cls-1" d="M238.6,263.99c.58-.1,1.13.3,1.22.87h0c.1.58-.29,1.13-.87,1.22l-11.14,1.85c-.58.1-1.13-.29-1.22-.87h0c-.1-.58.3-1.13.87-1.22l11.14-1.85Z"/>
          <path class="cls-1" d="M237.78,259.06c.58-.1,1.13.3,1.22.87h0c.1.58-.29,1.13-.87,1.22l-11.14,1.85c-.58.1-1.13-.29-1.22-.87h0c-.1-.58.3-1.13.87-1.22l11.14-1.85Z"/>
          <path class="cls-1" d="M236.96,254.12c.58-.1,1.13.3,1.22.87h0c.1.58-.29,1.13-.87,1.22l-11.14,1.85c-.58.1-1.13-.29-1.22-.87h0c-.1-.58.3-1.13.87-1.22l11.14-1.85Z"/>
          <path class="cls-1" d="M236.14,249.19c.58-.1,1.13.3,1.22.87h0c.1.58-.29,1.13-.87,1.22l-11.14,1.85c-.58.1-1.13-.3-1.22-.87h0c-.1-.58.3-1.13.87-1.22l11.14-1.85Z"/>
          <path class="cls-1" d="M235.32,244.26c.58-.1,1.13.3,1.22.87h0c.1.58-.29,1.13-.87,1.22l-11.14,1.85c-.58.1-1.13-.3-1.22-.87h0c-.1-.58.3-1.13.87-1.22l11.14-1.85Z"/>
          <path class="cls-1" d="M234.5,239.33c.58-.1,1.13.3,1.22.87h0c.1.58-.29,1.13-.87,1.22l-11.14,1.85c-.58.1-1.13-.3-1.22-.87h0c-.1-.58.3-1.13.87-1.22l11.14-1.85Z"/>
          <path class="cls-1" d="M233.69,234.39c.58-.1,1.13.3,1.22.87h0c.1.58-.29,1.13-.87,1.22l-11.14,1.85c-.58.1-1.13-.3-1.22-.87h0c-.1-.58.3-1.13.87-1.22l11.14-1.85Z"/>
          <path class="cls-1" d="M232.87,229.46c.58-.1,1.13.3,1.22.87h0c.1.58-.29,1.13-.87,1.22l-11.14,1.85c-.58.1-1.13-.3-1.22-.87h0c-.1-.58.3-1.13.87-1.22l11.14-1.85Z"/>
          <path class="cls-1" d="M232.05,224.53c.58-.1,1.13.3,1.22.87h0c.1.58-.29,1.13-.87,1.22l-11.14,1.85c-.58.1-1.13-.3-1.22-.87h0c-.1-.58.3-1.13.87-1.22l11.14-1.85Z"/>
        </g>
        <g>
          <path class="cls-1" d="M298.61,259.08c.58-.1,1.13.3,1.22.87h0c.1.58-.29,1.13-.88,1.22l-11.14,1.85c-.58.1-1.13-.29-1.22-.87h0c-.1-.58.3-1.13.87-1.22l11.14-1.85Z"/>
          <path class="cls-1" d="M297.79,254.15c.58-.1,1.13.3,1.22.87h0c.1.58-.29,1.13-.88,1.22l-11.14,1.85c-.58.1-1.13-.29-1.22-.87h0c-.1-.58.3-1.13.87-1.22l11.14-1.85Z"/>
          <path class="cls-1" d="M296.97,249.22c.58-.1,1.13.3,1.22.87h0c.1.58-.29,1.13-.88,1.22l-11.14,1.85c-.58.1-1.13-.29-1.22-.87h0c-.1-.58.3-1.13.87-1.22l11.14-1.85Z"/>
          <path class="cls-1" d="M296.15,244.29c.58-.1,1.13.3,1.22.87h0c.1.58-.29,1.13-.88,1.22l-11.14,1.85c-.58.1-1.13-.29-1.22-.87h0c-.1-.58.3-1.13.87-1.22l11.14-1.85Z"/>
          <path class="cls-1" d="M295.33,239.35c.58-.1,1.13.3,1.22.87h0c.1.58-.29,1.13-.88,1.22l-11.14,1.85c-.58.1-1.13-.3-1.22-.87h0c-.1-.58.3-1.13.87-1.22l11.14-1.85Z"/>
          <path class="cls-1" d="M294.51,234.42c.58-.1,1.13.3,1.22.87h0c.1.58-.29,1.13-.88,1.22l-11.14,1.85c-.58.1-1.13-.3-1.22-.87h0c-.1-.58.3-1.13.87-1.22l11.14-1.85Z"/>
          <path class="cls-1" d="M293.69,229.49c.58-.1,1.13.3,1.22.87h0c.1.58-.29,1.13-.88,1.22l-11.14,1.85c-.58.1-1.13-.3-1.22-.87h0c-.1-.58.3-1.13.87-1.22l11.14-1.85Z"/>
          <path class="cls-1" d="M292.87,224.56c.58-.1,1.13.3,1.22.87h0c.1.58-.29,1.13-.88,1.22l-11.14,1.85c-.58.1-1.13-.3-1.22-.87h0c-.1-.58.3-1.13.87-1.22l11.14-1.85Z"/>
          <path class="cls-1" d="M292.05,219.62c.58-.1,1.13.3,1.22.87h0c.1.58-.29,1.13-.88,1.22l-11.14,1.85c-.58.1-1.13-.3-1.22-.87h0c-.1-.58.3-1.13.87-1.22l11.14-1.85Z"/>
          <path class="cls-1" d="M291.23,214.69c.58-.1,1.13.3,1.22.87h0c.1.58-.29,1.13-.88,1.22l-11.14,1.85c-.58.1-1.13-.3-1.22-.87h0c-.1-.58.3-1.13.87-1.22l11.14-1.85Z"/>
        </g>
      </g>
      <g>
        <g>
          <rect class="cls-1" x="231.91" y="215.76" width="56.04" height="56.04" transform="translate(-36.45 45.91) rotate(-9.44)"/>
          <path class="cls-2" d="M282.55,212.14l9.02,54.26-54.26,9.02-9.02-54.26,54.26-9.02M283.41,210.94l-1.03.17-54.26,9.02-1.03.17.17,1.03,9.02,54.26.17,1.03,1.03-.17,54.26-9.02,1.03-.17-.17-1.03-9.02-54.26-.17-1.03h0Z"/>
        </g>
        <rect class="cls-2" x="236.28" y="220.13" width="47.3" height="47.3" transform="translate(-36.45 45.91) rotate(-9.44)"/>
        <g>
          <line class="cls-5" x1="228.3" y1="221.16" x2="291.57" y2="266.4"/>
          <line class="cls-5" x1="282.55" y1="212.14" x2="237.32" y2="275.42"/>
        </g>
      </g>
    </g>
  </g>
</svg>